<?xml version="1.0" standalone="no"?>
<!DOCTYPE svg PUBLIC "-//W3C//DTD SVG 20010904//EN"
 "http://www.w3.org/TR/2001/REC-SVG-20010904/DTD/svg10.dtd">
<svg version="1.0" xmlns="http://www.w3.org/2000/svg"
 width="256.000000pt" height="256.000000pt" viewBox="0 0 256.000000 256.000000"
 preserveAspectRatio="xMidYMid meet">

<g transform="translate(0.000000,256.000000) scale(0.100000,-0.100000)"
fill="#000000" stroke="none">
<path d="M1095 1562 c-117 -107 -366 -305 -402 -319 -21 -8 -15 -19 25 -45 73
-49 361 -286 391 -322 7 -9 17 -16 22 -16 12 0 11 37 -1 45 -5 3 -7 19 -3 35
3 19 1 30 -6 30 -6 0 -11 9 -11 21 0 29 18 14 29 -24 7 -24 8 -12 5 46 -4 63
-2 77 8 71 14 -8 -60 73 -106 116 l-30 27 30 29 c27 27 29 33 26 97 -2 54 0
67 12 67 8 0 17 -8 19 -17 4 -17 5 -17 6 0 0 10 8 25 16 33 11 11 15 37 15 90
0 41 -1 74 -2 74 -2 0 -21 -17 -43 -38z m28 -484 c-7 -13 -14 -30 -16 -38 -3
-8 -6 9 -6 38 -1 28 -5 52 -11 52 -5 0 -10 6 -10 12 0 7 12 0 27 -14 23 -23
25 -31 16 -50z"/>
<path d="M465 1279 l-90 -48 103 -1 c56 0 102 2 102 3 0 2 -7 18 -16 36 -9 17
-13 38 -10 46 3 8 4 14 3 14 -1 -1 -42 -23 -92 -50z"/>
<path d="M1152 879 c2 -7 10 -15 17 -17 8 -3 12 1 9 9 -2 7 -10 15 -17 17 -8
3 -12 -1 -9 -9z"/>
<path d="M1166 825 c4 -8 8 -15 10 -15 2 0 4 7 4 15 0 8 -4 15 -10 15 -5 0 -7
-7 -4 -15z"/>
<path d="M1267 634 c-4 -4 49 -61 117 -128 67 -66 160 -161 206 -211 45 -50
75 -76 65 -60 -55 91 -276 360 -319 389 -26 16 -58 21 -69 10z"/>
</g>
</svg>
